<mxfile host="app.diagrams.net" modified="2024-03-15T05:46:01.426Z" agent="Mozilla/5.0 (Macintosh; Intel Mac OS X 10_15_7) AppleWebKit/605.1.15 (KHTML, like Gecko) Version/16.1 Safari/605.1.15" version="24.0.6" etag="gYqCPs6wmo2H20Kt4rRO" type="github">
  <diagram name="Page-1" id="OUhjd5QczZQZaACeehBT">
    <mxGraphModel>
      <root>
        <mxCell id="0" />
        <mxCell id="1" parent="0" />
      </root>
    </mxGraphModel>
  </diagram>
</mxfile>
